<?xml version="1.0" encoding="UTF-8"?>
<svg xmlns="http://www.w3.org/2000/svg" version="1.1" viewBox="0 0 5000 5000">
  <!-- Generator: Adobe Illustrator 28.7.7, SVG Export Plug-In . SVG Version: 1.2.0 Build 194)  -->
  <g>
    <g id="Layer_1">
      <rect width="5000" height="5000" style="fill: none;"/>
      <g>
        <path d="M1627.623,916.444h1744.753c396.347,1.07,717.463,322.187,718.533,718.533v1730.182c-1.346,396.347-322.325,717.186-718.533,718.395h-1744.753c-396.208-1.209-717.324-322.049-718.532-718.395v-1730.182c1.069-396.347,322.186-717.463,718.532-718.533h0ZM1627.623,916.444" style="fill: #0a66c2; fill-rule: evenodd;"/>
        <path d="M2182.75,2144.116h402.147v207.15h5.662c56.24-100.501,192.994-207.15,397.312-207.15,424.415,0,502.753,264.047,502.753,607.674v726.508h-419.133v-645.72c0-147.802-3.108-338.241-218.094-338.241s-251.653,160.886-251.653,327.573v657.734h-418.994v-1335.529ZM1944.839,1739.657c0,88.177-53.134,167.618-134.579,201.349-81.478,33.697-175.213,15.088-237.636-47.196-62.316-62.455-80.925-156.19-47.195-237.635,33.696-81.478,113.139-134.612,201.35-134.612,120.423.137,217.921,97.637,218.06,218.094h0ZM1509.376,2144.116h435.463v1334.182h-435.463v-1334.182ZM1509.376,2144.116" style="fill: #fff; fill-rule: evenodd;"/>
      </g>
    </g>
  </g>
</svg>