<?xml version="1.0" encoding="UTF-8"?>
<svg xmlns="http://www.w3.org/2000/svg" version="1.1" xmlns:xlink="http://www.w3.org/1999/xlink" viewBox="0 0 800 800">
  <defs>
    <radialGradient id="radial-gradient" cx="247.6" cy="618.944" fx="247.6" fy="618.944" r="543.025" gradientUnits="userSpaceOnUse">
      <stop offset="0" stop-color="#fec053"/>
      <stop offset=".327" stop-color="#f2203e"/>
      <stop offset=".648" stop-color="#b729a8"/>
      <stop offset="1" stop-color="#5342d6"/>
    </radialGradient>
  </defs>
  <!-- Generator: Adobe Illustrator 28.7.7, SVG Export Plug-In . SVG Version: 1.2.0 Build 194)  -->
  <g>
    <g id="objects">
      <g>
        <rect x="175" y="175" width="450" height="450" rx="73.285" ry="73.285" style="fill: url(#radial-gradient);"/>
        <g>
          <path d="M479.798,585.247h-159.597c-58.146,0-105.45-47.301-105.45-105.449v-159.599c0-58.143,47.304-105.449,105.45-105.449h159.597c58.144,0,105.45,47.306,105.45,105.449v159.599c0,58.147-47.306,105.449-105.45,105.449ZM320.202,246.509c-40.634,0-73.693,33.058-73.693,73.691v159.599c0,40.636,33.059,73.693,73.693,73.693h159.597c40.635,0,73.693-33.058,73.693-73.693v-159.599c0-40.633-33.058-73.691-73.693-73.691h-159.597Z" style="fill: #fff;"/>
          <path d="M400,494.862c-52.307,0-94.863-42.554-94.863-94.864s42.556-94.864,94.863-94.864,94.863,42.556,94.863,94.864-42.556,94.864-94.863,94.864ZM400,336.893c-34.796,0-63.107,28.308-63.107,63.106s28.311,63.108,63.107,63.108,63.107-28.31,63.107-63.108-28.308-63.106-63.107-63.106Z" style="fill: #fff;"/>
          <path d="M521.735,299.707c0,12.593-10.208,22.798-22.8,22.798s-22.799-10.205-22.799-22.798,10.207-22.8,22.799-22.8,22.8,10.207,22.8,22.8Z" style="fill: #fff;"/>
        </g>
      </g>
    </g>
  </g>
</svg>