<?xml version="1.0" encoding="utf-8"?>
<!-- Generator: Adobe Illustrator 27.5.0, SVG Export Plug-In . SVG Version: 6.00 Build 0)  -->
<svg version="1.1" id="Object_00000157987558738593224770000008396793186446892694_"
	 xmlns="http://www.w3.org/2000/svg" xmlns:xlink="http://www.w3.org/1999/xlink" x="0px" y="0px" viewBox="0 0 3000 3000"
	 style="enable-background:new 0 0 3000 3000;" xml:space="preserve">
<rect style="fill:#FFFFFF;" width="3000" height="3000"/>
<g id="Behance_Rounded_Logo">
	<path style="fill-rule:evenodd;clip-rule:evenodd;fill:#1877F7;" d="M2363.636,2750H636.364
		C422.981,2750,250,2577.019,250,2363.636V636.364C250,422.981,422.981,250,636.364,250h1727.273
		C2577.019,250,2750,422.981,2750,636.364v1727.273C2750,2577.019,2577.019,2750,2363.636,2750z"/>
	<path style="fill:#FFFFFF;" d="M1730.716,1531.519c41.389-269.744,396.399-280.98,443.551,0H1730.716z M1744.638,961.568h419.624
		v104.431h-419.624V961.568z M863.653,1857.666v-270.241h209.593c93.788,0,149.424,47.691,149.424,135.12
		c0,82.659-54.06,135.12-149.424,135.12L863.653,1857.666L863.653,1857.666z M1062.123,1132.792
		c84.25,0,130.349,54.05,130.349,123.992c0,74.712-46.116,130.353-130.349,130.353H863.653v-254.345H1062.123z M1292.604,1479.346
		c205.458-97.507,209.591-545.244-235.265-545.244H636.365v1131.797h427.327c464.291,0,471.531-459.675,228.914-586.553
		L1292.604,1479.346z M2154.536,1773.858c-112.708,204.751-398.012,136.525-425.411-94.513h627.806
		c16.928-100.256,3.194-247.563-57.071-335.286c-211.553-307.945-755.093-214.367-755.093,262.164
		c0,544.695,675.931,576.883,797.297,167.635h-187.526H2154.536z"/>
</g>
</svg>
