<svg width="240" height="47" viewBox="0 0 240 47" fill="none" xmlns="http://www.w3.org/2000/svg">
<path d="M239.521 1.35742L212.042 33.7219V44.7814H195.079V33.7219L167.6 1.35742H187.616L209.938 29.5152H197.386L219.505 1.35742H239.521Z" fill="url(#paint0_linear_111_3)"/>
<path d="M167.865 26.665C167.639 30.9622 166.078 34.5582 163.183 37.4532C160.289 40.3481 156.014 42.5193 150.36 43.9668C144.751 45.4142 137.649 46.138 129.055 46.138C122.496 46.138 116.616 45.7761 111.414 45.0524C106.212 44.3739 101.779 43.1978 98.1154 41.5242C94.4515 39.8053 91.647 37.4758 89.702 34.5356C87.7569 31.5955 86.7844 27.8863 86.7844 23.4082C86.7844 18.9301 87.7569 15.1984 89.702 12.213C91.647 9.18236 94.4515 6.78499 98.1154 5.0209C101.779 3.21156 106.212 1.92241 111.414 1.15345C116.616 0.384484 122.496 0 129.055 0C137.649 0 144.774 0.791583 150.428 2.37475C156.082 3.91268 160.356 6.19696 163.251 9.22759C166.146 12.2582 167.707 15.9447 167.933 20.2871H150.292C149.749 18.8397 148.754 17.5731 147.307 16.4875C145.859 15.3567 143.688 14.4747 140.793 13.8414C137.898 13.2081 133.985 12.8915 129.055 12.8915C123.265 12.8915 118.561 13.2534 114.942 13.9771C111.323 14.6556 108.677 15.7638 107.004 17.3017C105.33 18.8397 104.493 20.8752 104.493 23.4082C104.493 25.7151 105.33 27.5923 107.004 29.0398C108.677 30.4872 111.323 31.5502 114.942 32.2287C118.561 32.9072 123.265 33.2465 129.055 33.2465C133.985 33.2465 137.875 32.9525 140.725 32.3644C143.62 31.7764 145.791 30.9848 147.239 29.9897C148.686 28.9493 149.681 27.8411 150.224 26.665H167.865Z" fill="url(#paint1_linear_111_3)"/>
<path d="M60.9971 20.0162V1.35742H77.9596V23.0694C77.9596 26.9142 77.2359 30.1937 75.7884 32.9077C74.3862 35.5764 72.4185 37.7929 69.8854 39.557C67.3524 41.2758 64.4348 42.6102 61.1328 43.5601C57.8308 44.51 54.28 45.1659 50.4804 45.5277C46.726 45.9348 42.9038 46.1384 39.0137 46.1384C34.8975 46.1384 30.917 45.9348 27.0721 45.5277C23.2273 45.1659 19.6539 44.51 16.3518 43.5601C13.095 42.6102 10.2453 41.2758 7.80274 39.557C5.36015 37.7929 3.43773 35.5764 2.0355 32.9077C0.6785 30.1937 0 26.9142 0 23.0694V1.35742H16.9625V20.0162C16.9625 23.6348 17.8445 26.3941 19.6086 28.2939C21.3727 30.1937 23.8832 31.5054 27.14 32.2292C30.442 32.9077 34.3999 33.2469 39.0137 33.2469C43.4918 33.2469 47.3819 32.9077 50.6839 32.2292C53.9859 31.5054 56.519 30.1937 58.2831 28.2939C60.0924 26.3941 60.9971 23.6348 60.9971 20.0162Z" fill="url(#paint2_linear_111_3)"/>
<defs>
<linearGradient id="paint0_linear_111_3" x1="167.6" y1="23.0694" x2="239.521" y2="23.0694" gradientUnits="userSpaceOnUse">
<stop stop-color="#DF57BC"/>
<stop offset="0.6" stop-color="#DE541E"/>
<stop offset="1" stop-color="#3626A7"/>
</linearGradient>
<linearGradient id="paint1_linear_111_3" x1="86.7844" y1="23.069" x2="167.933" y2="23.069" gradientUnits="userSpaceOnUse">
<stop stop-color="#DF57BC"/>
<stop offset="0.6" stop-color="#DE541E"/>
<stop offset="1" stop-color="#3626A7"/>
</linearGradient>
<linearGradient id="paint2_linear_111_3" x1="3.45287e-07" y1="23.7479" x2="77.9596" y2="23.7479" gradientUnits="userSpaceOnUse">
<stop stop-color="#DF57BC"/>
<stop offset="0.6" stop-color="#DE541E"/>
<stop offset="1" stop-color="#3626A7"/>
</linearGradient>
</defs>
</svg>
